<svg width="158" height="32" viewBox="0 0 158 32" fill="none" xmlns="http://www.w3.org/2000/svg">
<path d="M20.5716 7.51519V3.16309C20.5716 2.7634 20.2441 2.43855 19.8472 2.43855H8.53096C8.13127 2.43855 7.80652 2.76617 7.80652 3.16309V8.24244H19.85C20.2497 8.24244 20.5744 7.91495 20.5744 7.51804L20.5716 7.51519Z" fill="#00A6E2"/>
<path d="M7.80384 23.3307V8.23975H2.72444C2.32475 8.23975 2 8.56723 2 8.96415V28.4074C2 28.8071 2.32752 29.1318 2.72444 29.1318H19.8445C20.2442 29.1318 20.569 28.8043 20.569 28.4074V13.4579C20.569 13.0582 20.2414 12.7335 19.8445 12.7335L11.7175 12.739C11.3178 12.739 10.993 13.0665 10.993 13.4634V17.8157C10.993 18.2154 11.3206 18.5401 11.7175 18.5401H14.7651V23.328H7.80107L7.80384 23.3307Z" fill="#00A6E2"/>
<path d="M30.6447 23.3293L29.404 28.4949C29.3318 28.8502 29.0487 29.1332 28.6934 29.1332H23.8944C23.4725 29.1332 23.2227 28.8001 23.3365 28.3949L23.3448 28.3616L29.132 6.3786C30.0174 2.95069 32.3128 2.43715 34.3807 2.43715H34.5111C36.579 2.43715 38.8744 2.95069 39.7599 6.3786L45.4749 28.3616C45.4804 28.3839 45.486 28.4032 45.4915 28.4226C45.5804 28.7835 45.3 29.1332 44.9253 29.1332H40.1262C39.771 29.1332 39.4851 28.8502 39.4157 28.4949L38.2249 23.3293H30.6447ZM31.8299 18.4081H37.062L34.7776 8.93494C34.6777 8.52693 34.5778 8.23833 34.4445 8.23833C34.3113 8.23833 34.2114 8.52415 34.1115 8.93494L31.8271 18.4081H31.8299Z" fill="#00A6E2"/>
<path d="M62.1483 19.7349C62.6091 19.7349 62.9616 19.5573 63.2114 19.1299L66.3673 13.4037C66.3673 13.4037 66.3729 13.3981 66.3756 13.3981C66.3756 13.3981 66.3784 13.4009 66.3784 13.4092V28.4087C66.3784 28.8084 66.7059 29.1331 67.1028 29.1331H71.455C71.8547 29.1331 72.1795 28.8057 72.1795 28.4087V3.16161C72.1795 2.76192 71.8519 2.43721 71.455 2.43721H67.4942C67.2638 2.43721 67.0723 2.47331 66.903 2.52883C66.7503 2.57601 66.6254 2.65365 66.6254 2.65365C66.3673 2.80908 66.1952 3.04222 66.0009 3.39472L63.1143 8.82116L60.211 14.2475L57.3076 8.82116L54.421 3.39472C54.2267 3.03944 54.0546 2.80631 53.7965 2.65365C53.7965 2.65365 53.6716 2.57601 53.5189 2.52883C53.3524 2.47609 53.1581 2.43721 52.9277 2.43721H48.9669C48.5672 2.43721 48.2424 2.7647 48.2424 3.16161V28.4087C48.2424 28.8084 48.57 29.1331 48.9669 29.1331H53.3191C53.7188 29.1331 54.0435 28.8057 54.0435 28.4087V13.4092C54.0435 13.4092 54.0435 13.3981 54.0463 13.3981C54.0463 13.3981 54.0518 13.3981 54.0546 13.4037L57.2105 19.1299C57.4575 19.5573 57.8128 19.7349 58.2736 19.7349H62.1483Z" fill="#00A6E2"/>
<path d="M75.6383 2.43721C75.2386 2.43721 74.9138 2.7647 74.9138 3.16161V28.4087C74.9138 28.8084 75.2413 29.1331 75.6383 29.1331H92.7583C93.158 29.1331 93.4828 28.8057 93.4828 28.4087V24.0566C93.4828 23.6569 93.1553 23.3321 92.7583 23.3321H81.0063V18.5441H92.7583C93.158 18.5441 93.4828 18.2194 93.4828 17.8197V13.7562C93.4828 13.3565 93.1553 13.0318 92.7583 13.0318H81.0063V8.24381H92.7583C93.158 8.24381 93.4828 7.91632 93.4828 7.51941V3.16717C93.4828 2.76748 93.1553 2.44277 92.7583 2.44277H75.6383V2.43721Z" fill="#00A6E2"/>
<path d="M104.894 29.1346C107.622 29.1346 109.854 26.9029 109.854 24.1745V3.16019C109.854 2.7605 109.526 2.43579 109.129 2.43579H104.777C104.378 2.43579 104.053 2.76328 104.053 3.16019V22.6036C104.053 23.0033 103.728 23.328 103.328 23.328H96.9416C96.5419 23.328 96.2172 23.6555 96.2172 24.0524V28.4046C96.2172 28.8043 96.5447 29.129 96.9416 29.129H104.897L104.894 29.1346Z" fill="#00A6E2"/>
<path d="M123.444 2C117.609 2 112.588 5.25314 112.588 13.4801V18.2819C112.588 26.5089 117.609 29.5704 123.444 29.5704C129.278 29.5704 134.788 26.4145 134.788 18.1876V13.3856C134.788 5.15867 129.281 2.00285 123.444 2.00285V2ZM128.692 18.7427C128.692 21.4989 126.469 23.7638 123.73 23.7638H123.646C120.904 23.7638 118.683 21.4989 118.683 18.7427V12.7195C118.683 10.005 120.873 7.80389 123.574 7.80389H123.588C126.408 7.80389 128.695 10.1021 128.695 12.9388V18.7427H128.692Z" fill="#00A6E2"/>
<path d="M149.418 29.1346C153.09 29.1346 156.094 26.1146 156.094 22.423V21.0436C156.094 18.7426 154.925 16.7025 153.157 15.4924C154.825 14.2683 155.913 12.2921 155.913 10.0688V9.14718C155.913 5.45559 152.91 2.43579 149.238 2.43579H138.246C137.847 2.43579 137.522 2.76328 137.522 3.16575V28.4046C137.522 28.8071 137.849 29.1346 138.246 29.1346H149.418ZM150.434 21.0297C150.434 22.5341 149.316 23.7665 147.808 23.7665H143.614V18.254H147.808C149.316 18.254 150.434 19.4865 150.434 20.9909V21.0297ZM143.614 7.80666H148.061C149.357 7.80666 150.304 8.86695 150.304 10.1659V10.3797C150.304 11.6759 149.357 12.739 148.061 12.739H143.614V7.80666Z" fill="#00A6E2"/>
</svg>
